<svg width="20" height="18" viewBox="0 0 20 18" fill="none" xmlns="http://www.w3.org/2000/svg">
<path d="M9.90417 11.4898L12.4908 8.90817L12.5 8.99984C12.5 10.3782 11.3783 11.4998 10 11.4998L9.90417 11.4898ZM16.6108 4.7965L13.8825 7.51984C14.0592 7.9815 14.1667 8.47734 14.1667 8.99984C14.1667 11.2973 12.2975 13.1665 10 13.1665C9.47417 13.1665 8.97583 13.0582 8.5125 12.8798L6.53167 14.8565C7.595 15.3465 8.7575 15.6665 10.0125 15.6665C16.4567 15.6665 20 8.62567 20 8.62567C20 8.62567 18.8208 6.56067 16.6108 4.7965ZM17.8033 1.84984L2.2875 17.3332L1.13583 16.1482L4.015 13.2757C1.49667 11.234 0 8.62567 0 8.62567C0 8.62567 3.705 2.33317 10.0125 2.33317C11.5333 2.33317 12.8925 2.68817 14.0842 3.229L16.6517 0.666504L17.8033 1.84984ZM6.34417 10.9515L7.61 9.689C7.54583 9.469 7.5 9.24067 7.5 8.99984C7.5 7.6215 8.62167 6.49984 10 6.49984C10.2425 6.49984 10.4725 6.54567 10.6942 6.6115L11.9592 5.349C11.3725 5.03067 10.7125 4.83317 10 4.83317C7.7025 4.83317 5.83333 6.70234 5.83333 8.99984C5.83333 9.70984 6.02917 10.3673 6.34417 10.9515Z" fill="#C4C4C4"/>
</svg>
