<svg width="20" height="20" viewBox="0 0 20 20" fill="none" xmlns="http://www.w3.org/2000/svg">
<path d="M12.5 9.99984C12.5 11.3782 11.3783 12.4998 10 12.4998C8.62167 12.4998 7.5 11.3782 7.5 9.99984C7.5 8.6215 8.62167 7.49984 10 7.49984C11.3783 7.49984 12.5 8.6215 12.5 9.99984ZM20 9.62567C20 9.62567 16.4567 15.8332 10.0125 15.8332C4.02917 15.8332 0 9.62567 0 9.62567C0 9.62567 3.705 4.1665 10.0125 4.1665C16.4242 4.1665 20 9.62567 20 9.62567ZM14.1667 9.99984C14.1667 7.699 12.3017 5.83317 10 5.83317C7.69917 5.83317 5.83333 7.699 5.83333 9.99984C5.83333 12.3015 7.69917 14.1665 10 14.1665C12.3017 14.1665 14.1667 12.3015 14.1667 9.99984Z" fill="#C4C4C4"/>
</svg>
